<svg width="12" height="21" viewBox="0 0 12 21" fill="none" xmlns="http://www.w3.org/2000/svg">
<path d="M0.439672 20.046C0.158465 19.7647 0.000492109 19.3832 0.000492114 18.9855C0.000492119 18.5878 0.158465 18.2063 0.439673 17.925L7.86467 10.5L0.439673 3.075C0.166435 2.79209 0.0152437 2.41319 0.0186617 2.01989C0.0220787 1.6266 0.179833 1.25038 0.457944 0.972267C0.736057 0.694155 1.11228 0.536404 1.50557 0.532986C1.89887 0.529568 2.27777 0.680759 2.56067 0.953997L11.0462 9.4395C11.3274 9.72079 11.4854 10.1023 11.4854 10.5C11.4854 10.8977 11.3274 11.2792 11.0462 11.5605L2.56067 20.046C2.27938 20.3272 1.89792 20.4852 1.50017 20.4852C1.10243 20.4852 0.720963 20.3272 0.439672 20.046Z" fill="#A66CFF"/>
</svg>
