<svg width="12" height="21" viewBox="0 0 12 21" fill="none" xmlns="http://www.w3.org/2000/svg">
<path d="M11.5603 20.046C11.8415 19.7648 11.9995 19.3833 11.9995 18.9855C11.9995 18.5878 11.8415 18.2063 11.5603 17.925L4.13533 10.5L11.5603 3.07505C11.8336 2.79215 11.9848 2.41324 11.9813 2.01995C11.9779 1.62665 11.8202 1.25043 11.5421 0.97232C11.2639 0.694208 10.8877 0.536457 10.4944 0.533039C10.1011 0.529621 9.72223 0.680813 9.43933 0.95405L0.953828 9.43955C0.672621 9.72084 0.514648 10.1023 0.514648 10.5C0.514648 10.8978 0.672621 11.2793 0.953828 11.5605L9.43933 20.046C9.72062 20.3273 10.1021 20.4852 10.4998 20.4852C10.8976 20.4852 11.279 20.3273 11.5603 20.046Z" fill="#A66CFF"/>
</svg>
