<svg width="18" height="19" viewBox="0 0 18 19" fill="none" xmlns="http://www.w3.org/2000/svg">
<path d="M16 0.390381C16.5304 0.390381 17.0391 0.601094 17.4142 0.976167C17.7893 1.35124 18 1.85995 18 2.39038V16.3904C18 16.9208 17.7893 17.4295 17.4142 17.8046C17.0391 18.1797 16.5304 18.3904 16 18.3904H2C1.46957 18.3904 0.960859 18.1797 0.585786 17.8046C0.210714 17.4295 0 16.9208 0 16.3904V2.39038C0 1.85995 0.210714 1.35124 0.585786 0.976167C0.960859 0.601094 1.46957 0.390381 2 0.390381H16ZM15.5 15.8904V10.5904C15.5 9.72577 15.1565 8.89658 14.5452 8.28521C13.9338 7.67384 13.1046 7.33038 12.24 7.33038C11.39 7.33038 10.4 7.85038 9.92 8.63038V7.52038H7.13V15.8904H9.92V10.9604C9.92 10.1904 10.54 9.56038 11.31 9.56038C11.6813 9.56038 12.0374 9.70788 12.2999 9.97043C12.5625 10.233 12.71 10.5891 12.71 10.9604V15.8904H15.5ZM3.88 5.95038C4.32556 5.95038 4.75288 5.77338 5.06794 5.45832C5.383 5.14326 5.56 4.71594 5.56 4.27038C5.56 3.34038 4.81 2.58038 3.88 2.58038C3.43178 2.58038 3.00193 2.75843 2.68499 3.07537C2.36805 3.39231 2.19 3.82217 2.19 4.27038C2.19 5.20038 2.95 5.95038 3.88 5.95038ZM5.27 15.8904V7.52038H2.5V15.8904H5.27Z" fill="white"/>
</svg>
